<svg xmlns="http://www.w3.org/2000/svg" version="1.1" viewBox="480.39 187.05 405.28 404.7">
  <!-- Generator: Adobe Illustrator 29.3.1, SVG Export Plug-In . SVG Version: 2.1.0 Build 151)  -->
  <defs>
    <style>
      .st0 {
        fill: #ea2f1d;
      }

      .st1 {
        display: none;
      }
    </style>
  </defs>
  <g id="Layer_3" class="st1">
    <path class="st0" d="M936.915,578.467V187.451c9.351,0,18.404-.037,27.456.006,54.59.261,109.328-1.901,163.735,1.396,77.447,4.694,138.203,39.631,170.651,112.684,32.043,72.142,18.939,163.536-42.531,221.503-31.496,29.701-69.729,45.986-112.183,52.047-17.193,2.455-34.747,3.086-52.148,3.236-48.408.416-96.821.144-145.232.144h-9.748ZM1039.529,382.82c0,33.858.123,67.716-.122,101.572-.041,5.61,1.456,7.446,7.198,7.348,19.073-.326,38.165.27,57.231-.231,21.834-.573,42.556-5.965,60.805-18.329,36.958-25.038,54.084-70.24,43.885-114.478-11.133-48.286-41.181-76.486-90.858-82.052-23.095-2.588-46.648-.913-69.973-1.744-7.132-.254-8.36,2.403-8.307,8.76.274,33.049.127,66.102.142,99.153Z"/>
  </g>
  <g id="o" class="st1">
    <g id="Layer_2">
      <path class="st0" d="M195.475,454.205v123.876h-102.509V188.692c2.126-.304,4.153-.85,6.179-.846,66.676.138,133.384-.853,200.016.95,40.917,1.107,77.883,15.236,105.626,47.383,24.019,27.832,29.655,61.292,27.383,96.576-1.957,30.391-13.576,56.93-36.248,77.531-12.833,11.661-27.255,21.574-42.16,33.21,29.644,43.915,59.849,88.662,90.584,134.194-2.394.303-4.07.698-5.746.7-34.684.044-69.369.16-104.05-.152-3.073-.028-7.326-2.096-8.998-4.583-25.313-37.634-50.356-75.451-75.241-113.37-2.783-4.242-5.5-6.373-10.853-6.22-14.183.407-28.385.138-43.982.138ZM195.724,372.133c1.205.142,2.484.424,3.761.422,25.792-.042,51.585-.009,77.375-.269,5.581-.056,11.274-.653,16.705-1.909,23.843-5.516,38.976-26.236,37.698-51.1-1.132-22.014-19.093-41.012-43.054-42.417-28.907-1.696-57.94-1.198-86.915-1.818-5.076-.109-5.613,2.622-5.605,6.603.063,29.812.034,59.623.034,90.489Z"/>
    </g>
  </g>
  <g id="ox">
    <path class="st0" d="M683.028,187.046c-111.916,0-202.642,90.594-202.642,202.348,0,69.51,33.602,133.136,88.566,167.263l.09-1.055-.09-.045s3.347-215.705,3.347-220.134c33.219,0,66.437-6.644,79.725-8.858,55.364-11.073,88.583-62.008,95.227-81.939,6.644-19.931,4.429,2.215,2.215,28.789-6.644,44.292-46.506,70.866-55.364,75.296-8.858,2.215-2.215,11.073-2.215,11.073,0,0,73.081,108.514,86.368,124.016,15.502,13.287,6.644,24.36,6.644,24.36-6.644,15.502-22.146,33.219-22.146,33.219-11.073,11.073-44.292-8.858-106.3-4.429-33.134,2.367-40.901,41.908-40.901,41.908l-.008-.004c-.235,1.067-.214,1.32-.214,1.321,0,0,.002,0,.002.001,20.559,9.032,43.955,11.566,67.695,11.566,111.916,0,202.642-90.594,202.642-202.348s-90.726-202.348-202.642-202.348Z"/>
    <g id="Layer_1">
      <path class="st0" d="M687.696,411.97c-6.743-5.669-12.43-10.45-18.468-15.526,5.432-3.886,11.593-5.32,16.917-1.56,5.763,4.07,3.96,10.301,1.551,17.086Z"/>
    </g>
  </g>
</svg>